<svg id="logo_art" data-name="logo art" xmlns="http://www.w3.org/2000/svg" viewBox="0 0 1281.47 600"><defs><style>.cls-1{fill:#fff;}.cls-2{fill:#fca121;}.cls-3{fill:#fc6d26;}.cls-4{fill:#db3b21;}</style></defs><path id="path14" class="cls-1" d="M840.37,221.58h-21l.1,156.76h85.18V359H840.47l-.1-137.37Z"/><g id="g24"><path id="path26" class="cls-1" d="M985.67,350.83a35.86,35.86,0,0,1-26,11c-16,0-22.48-7.91-22.48-18.23,0-15.53,10.81-23,33.76-23a101.69,101.69,0,0,1,14.86,1.15v29Zm-21.8-95a69.64,69.64,0,0,0-44.76,16.11l7.43,12.93c8.59-5,19.1-10,34.25-10,17.26,0,24.88,8.87,24.88,23.73v7.62A95.18,95.18,0,0,0,971.11,305c-36.85,0-55.57,12.93-55.57,39.94,0,24.21,14.86,36.36,37.34,36.36,15.14,0,29.71-6.94,34.72-18.23l3.86,15.34h14.86V298.16c-.1-25.37-11.1-42.35-42.45-42.35Z"/></g><g id="g28"><path id="path30" class="cls-1" d="M1074.17,362.55c-7.91,0-14.85-1-20.06-3.38V286.72c7.13-6,16-10.32,27.3-10.32,20.35,0,28.16,14.38,28.16,37.62,0,33-12.63,48.53-35.4,48.53m8.88-106.7a38.52,38.52,0,0,0-28.94,12.83V248.43l-.1-26.82h-20.55l.1,152.9c10.32,4.34,24.41,6.65,39.74,6.65,39.26,0,58.17-25.08,58.17-68.39-.09-34.25-17.55-56.92-48.42-56.92"/></g><g id="g32"><path id="path34" class="cls-1" d="M611.4,238.59c18.62,0,30.68,6.17,38.49,12.44L659,235.31c-12.25-10.8-28.85-16.59-46.6-16.59-44.76,0-76.11,27.3-76.11,82.38,0,57.69,33.86,80.16,72.54,80.16a123.14,123.14,0,0,0,46.69-9.07L655,310.55V291.16H597.6v19.39h36.66l.48,46.79c-4.82,2.41-13.12,4.34-24.4,4.34-31.06,0-51.9-19.58-51.9-60.77-.1-42,21.41-62.32,53-62.32"/></g><g id="g36"><path id="path38" class="cls-1" d="M759.5,221.56H739l.1,26.34v91c0,25.37,11,42.35,42.35,42.35A67.08,67.08,0,0,0,794,380.05V361.63a60.5,60.5,0,0,1-9.55.67c-17.27,0-24.89-8.87-24.89-23.73v-62.7H794V258.7H759.6l-.1-37.14Z"/></g><path id="path40" class="cls-1" d="M686.7,378.34h20.55V258.72H686.7V378.34Z"/><path id="path42" class="cls-1" d="M686.7,242.23h20.55V221.68H686.7v20.55Z"/><path id="path66" class="cls-2" d="M168.86,265.43h0l-18.25,56.08a12.44,12.44,0,0,0,4.5,13.89L312.83,450l-144-184.57Z"/><path id="path66-2" data-name="path66" class="cls-2" d="M456.79,265.43h0l18.26,56.08a12.45,12.45,0,0,1-4.5,13.89L312.83,450l144-184.57Z"/><path id="path58" class="cls-3" d="M312.83,450l-60-184.57h-84L312.83,450Z"/><path id="path58-2" data-name="path58" class="cls-3" d="M312.83,450l60-184.57h84L312.83,450Z"/><path id="path50" class="cls-4" d="M312.83,450h0l60-184.57h-120l60,184.57Z"/><path id="path74" class="cls-4" d="M168.86,265.43h84L216.74,154.27a6.24,6.24,0,0,0-11.84,0l-36,111.16Z"/><path id="path86" class="cls-4" d="M456.79,265.43H372.74l36.11-111.16a6.24,6.24,0,0,1,11.84,0l36.1,111.16Z"/></svg>